<svg xmlns="http://www.w3.org/2000/svg" viewBox="0 0 40 40" fill="none">
  <rect width="40" height="40" rx="8" fill="#336791" fill-opacity="0.1"/>
  <path d="M27.5 17.5c0-1.5-.5-3-1.5-4s-2.5-1.5-4-1.5c-1 0-2 .3-2.8.8-.5-.3-1.2-.5-1.7-.5-2.2 0-4 2-4 4.5 0 .5.1 1 .2 1.5-.7.8-1.2 1.8-1.2 3 0 2.5 1.8 4.5 4 4.5.5 0 1-.1 1.5-.3.8.8 1.8 1.3 3 1.3 1.5 0 2.8-.8 3.5-2 .5.1 1 .2 1.5.2 2.2 0 4-2 4-4.5 0-1.5-.8-2.8-2-3.5z" fill="#336791" fill-opacity="0.3"/>
  <path d="M20 13c-3.5 0-6 2.5-6 6 0 2 1 3.5 2 4.5v3l2-1.5c.6.2 1.3.3 2 .3 3.5 0 6-2.5 6-6s-2.5-6.3-6-6.3z" stroke="#336791" stroke-width="1.5" fill="none"/>
  <circle cx="18" cy="18" r="1" fill="#336791"/>
  <circle cx="22" cy="18" r="1" fill="#336791"/>
</svg>