<svg xmlns="http://www.w3.org/2000/svg" viewBox="0 0 40 40" fill="none">
  <rect width="40" height="40" rx="8" fill="#3776AB" fill-opacity="0.1"/>
  <path d="M19.5 11c-3.5 0-3.3 1.5-3.3 1.5v1.6h3.4v.5h-4.7S12 14.2 12 17.8s2.6 3.4 2.6 3.4h1.5v-1.7s-.1-2.6 2.5-2.6h3.4s2.5 0 2.5-2.4v-3.1S24.9 11 19.5 11zm-1.9 1.5c.4 0 .8.3.8.8s-.3.8-.8.8-.8-.3-.8-.8.4-.8.8-.8z" fill="#3776AB"/>
  <path d="M20.5 29c3.5 0 3.3-1.5 3.3-1.5v-1.6h-3.4v-.5h4.7S28 25.8 28 22.2s-2.6-3.4-2.6-3.4h-1.5v1.7s.1 2.6-2.5 2.6h-3.4s-2.5 0-2.5 2.4v3.1S15.1 29 20.5 29zm1.9-1.5c-.4 0-.8-.3-.8-.8s.3-.8.8-.8.8.3.8.8-.4.8-.8.8z" fill="#FFD43B"/>
</svg>